#N canvas 67 23 1912 874 10;
#X obj 329 103 adc~;
#N canvas 0 0 450 300 (subpatch) 0;
#X array array1 100 float 3;
#A 0 -0.00622024 -0.00859281 -0.00951019 -0.0107606 -0.0119459 -0.0134995
-0.0155982 -0.0186849 -0.022933 -0.0255491 -0.0254027 -0.0268795 -0.0296807
-0.0300256 -0.0287396 -0.0283261 -0.0314359 -0.0349381 -0.0352256 -0.0359973
-0.038183 -0.0396196 -0.0392087 -0.0356923 -0.0321771 -0.0317126 -0.0332118
-0.033685 -0.0313376 -0.029952 -0.0298349 -0.0269475 -0.0233077 -0.0208539
-0.0176184 -0.0146355 -0.0124226 -0.00881673 -0.00417711 0.000822056
0.00757064 0.0152634 0.0232297 0.0320184 0.0399229 0.0468722 0.0526025
0.056487 0.0587588 0.0583425 0.0575202 0.0570912 0.0544181 0.0511559
0.047472 0.0420635 0.0381516 0.0352582 0.0323471 0.0316749 0.0324031
0.0347684 0.0367174 0.0349937 0.0321441 0.0288138 0.0247384 0.0205137
0.0134434 0.00589307 0.000479782 -0.00560116 -0.0094114 -0.00894817
-0.00781787 -0.00789257 -0.0104986 -0.0137314 -0.016072 -0.0207438
-0.0258449 -0.0275367 -0.0274234 -0.0281424 -0.0299787 -0.0324871 -0.033865
-0.0333546 -0.0344978 -0.0356394 -0.0341946 -0.0310113 -0.0264235 -0.0237401
-0.0233078 -0.0238151 -0.024207 -0.0216645 -0.0169323 -0.0113701;
#X coords 0 1 99 -1 200 140 1;
#X restore 101 51 graph;
#X obj 387 151 tabwrite~ array1;
#X obj 387 113 metro 160;
#X obj 387 73 bng 15 250 50 0 empty empty empty 17 7 0 10 -262144 -1
-1;
#X obj 1260 264 +~;
#X obj 1259 216 +~;
#X obj 1259 241 +~;
#X obj 1383 199 +~;
#X obj 1260 295 +~;
#X obj 1261 318 +~;
#X obj 1259 195 +~;
#X obj 1490 341 osc~ 493.883;
#X obj 1459 113 +~;
#X obj 1370 111 +~;
#X obj 1268 83 +~;
#X text 1392 32 comment;
#X obj 1230 113 +~;
#X obj 1185 91 +~;
#X obj 1230 144 +~;
#X obj 1260 173 +~;
#X obj 1406 328 osc~ 379.91;
#X obj 1487 235 osc~ 292.238;
#X obj 1387 231 osc~ 224.798;
#X obj 1472 152 osc~ 172.922;
#X obj 1384 152 osc~ 133.017;
#X obj 1460 61 osc~ 102.321;
#X obj 1370 40 osc~ 78.708;
#X obj 1268 22 osc~ 60.544;
#X obj 1185 22 osc~ 46.572;
#X obj 1406 367 +~;
#X obj 1487 289 +~;
#X obj 1386 289 +~;
#X obj 1473 201 +~;
#X obj 1489 385 +~;
#X obj 1200 55 osc~ 47;
#X obj 1283 56 osc~ 61;
#X obj 1475 83 osc~ 103;
#X obj 1399 171 osc~ 134;
#X obj 1487 175 osc~ 173;
#X obj 1404 253 osc~ 225;
#X obj 1503 258 osc~ 293;
#X obj 1425 348 osc~ 380;
#X obj 1503 361 osc~ 494;
#X obj 1385 72 osc~ 79;
#X obj 1261 411 output~;
#X text 1331 418 Babel [493.883 hz/ 1.3];
#N canvas 876 177 375 255 startup 0;
#X obj 22 24 loadbang;
#X obj 22 48 bng 15 250 50 0 empty empty empty 0 -6 0 8 -262144 -1
-1;
#X obj 22 67 f \$0;
#X text 35 195 This subpatch loads initial;
#X text 31 219 values in number boxes.;
#X msg 22 91 \; \$1-pole 80;
#X connect 0 0 1 0;
#X connect 1 0 2 0;
#X connect 2 0 5 0;
#X restore 1012 401 pd startup;
#N canvas 1597 84 660 424 chord 0;
#X obj 87 97 -~ 0.5;
#X obj 87 146 clip~ -0.5 0.5;
#X obj 87 169 cos~;
#X obj 91 252 hip~ 5;
#X obj 91 315 outlet~;
#X obj 87 122 *~ 3;
#X obj 221 97 -~ 0.5;
#X obj 221 146 clip~ -0.5 0.5;
#X obj 221 169 cos~;
#X obj 221 122 *~ 3;
#X obj 356 100 -~ 0.5;
#X obj 356 149 clip~ -0.5 0.5;
#X obj 356 172 cos~;
#X obj 356 125 *~ 3;
#X obj 491 100 -~ 0.5;
#X obj 491 149 clip~ -0.5 0.5;
#X obj 491 172 cos~;
#X obj 491 125 *~ 3;
#X text 147 32 test sound for phaser;
#X obj 91 285 *~ 0.9;
#X obj 87 74 phasor~ 56;
#X obj 221 74 phasor~ 57;
#X obj 356 77 phasor~ 58;
#X obj 491 77 phasor~ 59;
#X connect 0 0 5 0;
#X connect 1 0 2 0;
#X connect 2 0 3 0;
#X connect 3 0 19 0;
#X connect 5 0 1 0;
#X connect 6 0 9 0;
#X connect 7 0 8 0;
#X connect 8 0 3 0;
#X connect 9 0 7 0;
#X connect 10 0 13 0;
#X connect 11 0 12 0;
#X connect 12 0 3 0;
#X connect 13 0 11 0;
#X connect 14 0 17 0;
#X connect 15 0 16 0;
#X connect 16 0 3 0;
#X connect 17 0 15 0;
#X connect 19 0 4 0;
#X connect 20 0 0 0;
#X connect 21 0 6 0;
#X connect 22 0 10 0;
#X connect 23 0 14 0;
#X restore 762 111 pd chord;
#X obj 761 378 output~;
#X obj 784 165 rpole~;
#X obj 784 140 rzero_rev~;
#X obj 784 214 rpole~;
#X obj 784 189 rzero_rev~;
#X obj 784 262 rpole~;
#X obj 784 237 rzero_rev~;
#X obj 784 311 rpole~;
#X obj 784 286 rzero_rev~;
#X obj 761 341 +~;
#X obj 939 289 expr~ 1 - 0.03 - 0.6*abs($v1-0.5)*abs($v1-0.5);
#X obj 939 257 phasor~ 0.5;
#X connect 0 0 2 0;
#X connect 3 0 2 0;
#X connect 4 0 3 0;
#X connect 5 0 9 0;
#X connect 6 0 7 0;
#X connect 7 0 5 0;
#X connect 8 0 11 1;
#X connect 9 0 10 0;
#X connect 10 0 45 0;
#X connect 10 0 45 1;
#X connect 11 0 6 0;
#X connect 12 0 34 0;
#X connect 13 0 20 1;
#X connect 14 0 19 1;
#X connect 15 0 17 1;
#X connect 17 0 19 0;
#X connect 18 0 17 0;
#X connect 19 0 20 0;
#X connect 20 0 11 0;
#X connect 21 0 30 0;
#X connect 22 0 31 0;
#X connect 23 0 32 0;
#X connect 24 0 33 0;
#X connect 25 0 8 0;
#X connect 26 0 13 0;
#X connect 27 0 14 0;
#X connect 28 0 15 0;
#X connect 29 0 18 0;
#X connect 30 0 9 1;
#X connect 31 0 5 1;
#X connect 32 0 7 1;
#X connect 33 0 6 1;
#X connect 34 0 10 1;
#X connect 35 0 18 1;
#X connect 36 0 15 1;
#X connect 37 0 13 1;
#X connect 38 0 8 1;
#X connect 39 0 33 1;
#X connect 40 0 32 1;
#X connect 41 0 31 1;
#X connect 42 0 30 1;
#X connect 43 0 34 1;
#X connect 44 0 14 1;
#X connect 48 0 51 0;
#X connect 48 0 58 0;
#X connect 50 0 53 0;
#X connect 51 0 50 0;
#X connect 52 0 55 0;
#X connect 53 0 52 0;
#X connect 54 0 57 0;
#X connect 55 0 54 0;
#X connect 56 0 58 1;
#X connect 57 0 56 0;
#X connect 58 0 49 0;
#X connect 58 0 49 1;
#X connect 59 0 51 1;
#X connect 59 0 50 1;
#X connect 59 0 53 1;
#X connect 59 0 52 1;
#X connect 59 0 55 1;
#X connect 59 0 54 1;
#X connect 59 0 57 1;
#X connect 59 0 56 1;
#X connect 60 0 59 0;
#X coords 0 0 2 1 0 0 0;
